<mxfile host="Electron" agent="Mozilla/5.0 (Windows NT 10.0; Win64; x64) AppleWebKit/537.36 (KHTML, like Gecko) draw.io/24.7.17 Chrome/128.0.6613.36 Electron/32.0.1 Safari/537.36" version="24.7.17">
  <diagram name="Страница — 1" id="RO7d_6ZZX7FF17mnKNHR">
    <mxGraphModel dx="2150" dy="1035" grid="1" gridSize="10" guides="1" tooltips="1" connect="1" arrows="1" fold="1" page="1" pageScale="1" pageWidth="827" pageHeight="1169" math="0" shadow="0">
      <root>
        <mxCell id="0" />
        <mxCell id="1" parent="0" />
        <mxCell id="v4R56gEZ0l0kGXcazd9q-1" value="viewer" style="swimlane;whiteSpace=wrap;html=1;" parent="1" vertex="1">
          <mxGeometry x="120" y="60" width="200" height="2560" as="geometry" />
        </mxCell>
        <mxCell id="AVVicG0hp_9892uMHadr-11" value="страница кабинета пользователя" style="rounded=0;whiteSpace=wrap;html=1;" parent="v4R56gEZ0l0kGXcazd9q-1" vertex="1">
          <mxGeometry x="30" y="410" width="120" height="110" as="geometry" />
        </mxCell>
        <mxCell id="AVVicG0hp_9892uMHadr-14" value="" style="endArrow=classic;html=1;rounded=0;exitX=0;exitY=0.25;exitDx=0;exitDy=0;" parent="v4R56gEZ0l0kGXcazd9q-1" edge="1">
          <mxGeometry width="50" height="50" relative="1" as="geometry">
            <mxPoint x="30" y="430" as="sourcePoint" />
            <mxPoint x="-90" y="430.5" as="targetPoint" />
          </mxGeometry>
        </mxCell>
        <mxCell id="AVVicG0hp_9892uMHadr-15" value="" style="endArrow=classic;html=1;rounded=0;entryX=0;entryY=0.75;entryDx=0;entryDy=0;" parent="v4R56gEZ0l0kGXcazd9q-1" target="AVVicG0hp_9892uMHadr-11" edge="1">
          <mxGeometry width="50" height="50" relative="1" as="geometry">
            <mxPoint x="-90" y="490" as="sourcePoint" />
            <mxPoint x="310" y="380" as="targetPoint" />
          </mxGeometry>
        </mxCell>
        <mxCell id="AVVicG0hp_9892uMHadr-16" value="пользователь &lt;br&gt;нажимает на кнопку &lt;br&gt;&quot;записаться на приём&quot;&amp;nbsp;" style="edgeLabel;html=1;align=center;verticalAlign=middle;resizable=0;points=[];" parent="AVVicG0hp_9892uMHadr-15" vertex="1" connectable="0">
          <mxGeometry x="0.2222" y="-2" relative="1" as="geometry">
            <mxPoint x="-25" y="23" as="offset" />
          </mxGeometry>
        </mxCell>
        <mxCell id="j_ujcyk-bJkYESmtgM9s-55" value="страница с сообщением об удачной записи" style="whiteSpace=wrap;html=1;aspect=fixed;" parent="v4R56gEZ0l0kGXcazd9q-1" vertex="1">
          <mxGeometry x="30" y="2030" width="120" height="120" as="geometry" />
        </mxCell>
        <mxCell id="j_ujcyk-bJkYESmtgM9s-52" value="" style="endArrow=classic;html=1;rounded=0;entryX=1;entryY=0.75;entryDx=0;entryDy=0;" parent="v4R56gEZ0l0kGXcazd9q-1" target="j_ujcyk-bJkYESmtgM9s-45" edge="1">
          <mxGeometry width="50" height="50" relative="1" as="geometry">
            <mxPoint x="680" y="2105" as="sourcePoint" />
            <mxPoint x="369" y="2140" as="targetPoint" />
          </mxGeometry>
        </mxCell>
        <mxCell id="j_ujcyk-bJkYESmtgM9s-58" value="" style="endArrow=none;dashed=1;html=1;rounded=0;" parent="v4R56gEZ0l0kGXcazd9q-1" edge="1">
          <mxGeometry width="50" height="50" relative="1" as="geometry">
            <mxPoint x="-46" y="2180" as="sourcePoint" />
            <mxPoint x="644" y="2180" as="targetPoint" />
          </mxGeometry>
        </mxCell>
        <mxCell id="j_ujcyk-bJkYESmtgM9s-59" value="3.1" style="text;html=1;align=center;verticalAlign=middle;resizable=0;points=[];autosize=1;strokeColor=none;fillColor=none;" parent="v4R56gEZ0l0kGXcazd9q-1" vertex="1">
          <mxGeometry x="-56" y="2150" width="40" height="30" as="geometry" />
        </mxCell>
        <mxCell id="j_ujcyk-bJkYESmtgM9s-46" style="edgeStyle=orthogonalEdgeStyle;rounded=0;orthogonalLoop=1;jettySize=auto;html=1;exitX=1;exitY=0.5;exitDx=0;exitDy=0;" parent="v4R56gEZ0l0kGXcazd9q-1" edge="1">
          <mxGeometry relative="1" as="geometry">
            <mxPoint x="680" y="2089.654761904762" as="targetPoint" />
            <mxPoint x="570" y="2089.75" as="sourcePoint" />
          </mxGeometry>
        </mxCell>
        <mxCell id="j_ujcyk-bJkYESmtgM9s-47" value="передача курсора" style="edgeLabel;html=1;align=center;verticalAlign=middle;resizable=0;points=[];" parent="j_ujcyk-bJkYESmtgM9s-46" vertex="1" connectable="0">
          <mxGeometry x="0.2088" relative="1" as="geometry">
            <mxPoint x="-16" y="-10" as="offset" />
          </mxGeometry>
        </mxCell>
        <mxCell id="v4R56gEZ0l0kGXcazd9q-2" value="controller" style="swimlane;whiteSpace=wrap;html=1;" parent="1" vertex="1">
          <mxGeometry x="320" y="61" width="200" height="2559" as="geometry" />
        </mxCell>
        <mxCell id="j_ujcyk-bJkYESmtgM9s-3" value="сохранение данных в переменную" style="rounded=0;whiteSpace=wrap;html=1;" parent="v4R56gEZ0l0kGXcazd9q-2" vertex="1">
          <mxGeometry x="40" y="289" width="120" height="60" as="geometry" />
        </mxCell>
        <mxCell id="j_ujcyk-bJkYESmtgM9s-7" value="" style="rounded=0;whiteSpace=wrap;html=1;" parent="v4R56gEZ0l0kGXcazd9q-2" vertex="1">
          <mxGeometry x="40" y="389" width="120" height="131" as="geometry" />
        </mxCell>
        <mxCell id="j_ujcyk-bJkYESmtgM9s-8" value="" style="endArrow=classic;html=1;rounded=0;exitX=0.5;exitY=1;exitDx=0;exitDy=0;entryX=0.5;entryY=0;entryDx=0;entryDy=0;" parent="v4R56gEZ0l0kGXcazd9q-2" source="j_ujcyk-bJkYESmtgM9s-3" target="j_ujcyk-bJkYESmtgM9s-7" edge="1">
          <mxGeometry width="50" height="50" relative="1" as="geometry">
            <mxPoint x="60" y="390" as="sourcePoint" />
            <mxPoint x="110" y="340" as="targetPoint" />
          </mxGeometry>
        </mxCell>
        <mxCell id="AVVicG0hp_9892uMHadr-12" value="" style="endArrow=classic;html=1;rounded=0;entryX=1;entryY=0.158;entryDx=0;entryDy=0;entryPerimeter=0;" parent="v4R56gEZ0l0kGXcazd9q-2" edge="1">
          <mxGeometry width="50" height="50" relative="1" as="geometry">
            <mxPoint x="40" y="429" as="sourcePoint" />
            <mxPoint x="-50" y="429.02" as="targetPoint" />
          </mxGeometry>
        </mxCell>
        <mxCell id="AVVicG0hp_9892uMHadr-13" value="переадресация&lt;br&gt;с данными &lt;br&gt;о пользователе" style="edgeLabel;html=1;align=center;verticalAlign=middle;resizable=0;points=[];" parent="AVVicG0hp_9892uMHadr-12" vertex="1" connectable="0">
          <mxGeometry x="-0.3065" y="1" relative="1" as="geometry">
            <mxPoint x="-19" y="-31" as="offset" />
          </mxGeometry>
        </mxCell>
        <mxCell id="j_ujcyk-bJkYESmtgM9s-36" value="" style="endArrow=classic;html=1;rounded=0;entryX=0.015;entryY=0.316;entryDx=0;entryDy=0;entryPerimeter=0;" parent="v4R56gEZ0l0kGXcazd9q-2" target="AVVicG0hp_9892uMHadr-56" edge="1">
          <mxGeometry width="50" height="50" relative="1" as="geometry">
            <mxPoint x="350" y="1479" as="sourcePoint" />
            <mxPoint x="210" y="1130" as="targetPoint" />
          </mxGeometry>
        </mxCell>
        <mxCell id="iH0Iw84YJGZlvLgJqFwu-1" value="" style="rounded=0;whiteSpace=wrap;html=1;" vertex="1" parent="v4R56gEZ0l0kGXcazd9q-2">
          <mxGeometry x="34" y="40" width="120" height="60" as="geometry" />
        </mxCell>
        <mxCell id="AVVicG0hp_9892uMHadr-29" value="" style="endArrow=classic;html=1;rounded=0;entryX=1;entryY=0.158;entryDx=0;entryDy=0;entryPerimeter=0;" parent="v4R56gEZ0l0kGXcazd9q-2" edge="1">
          <mxGeometry width="50" height="50" relative="1" as="geometry">
            <mxPoint x="60" y="822" as="sourcePoint" />
            <mxPoint x="-50" y="822" as="targetPoint" />
          </mxGeometry>
        </mxCell>
        <mxCell id="AVVicG0hp_9892uMHadr-30" value="переадресация &lt;br&gt;со списком &lt;br&gt;специальностей" style="edgeLabel;html=1;align=center;verticalAlign=middle;resizable=0;points=[];" parent="AVVicG0hp_9892uMHadr-29" vertex="1" connectable="0">
          <mxGeometry x="-0.3065" y="1" relative="1" as="geometry">
            <mxPoint x="-27" y="-25" as="offset" />
          </mxGeometry>
        </mxCell>
        <mxCell id="AVVicG0hp_9892uMHadr-28" value="страница страница с выбором специальности" style="rounded=0;whiteSpace=wrap;html=1;" parent="v4R56gEZ0l0kGXcazd9q-2" vertex="1">
          <mxGeometry x="-170" y="748" width="120" height="190" as="geometry" />
        </mxCell>
        <mxCell id="AVVicG0hp_9892uMHadr-31" value="" style="endArrow=classic;html=1;rounded=0;exitX=-0.011;exitY=0.391;exitDx=0;exitDy=0;exitPerimeter=0;" parent="v4R56gEZ0l0kGXcazd9q-2" source="AVVicG0hp_9892uMHadr-28" edge="1">
          <mxGeometry width="50" height="50" relative="1" as="geometry">
            <mxPoint x="80" y="908" as="sourcePoint" />
            <mxPoint x="-270" y="822" as="targetPoint" />
          </mxGeometry>
        </mxCell>
        <mxCell id="AVVicG0hp_9892uMHadr-32" value="" style="endArrow=classic;html=1;rounded=0;entryX=0;entryY=0.75;entryDx=0;entryDy=0;" parent="v4R56gEZ0l0kGXcazd9q-2" target="AVVicG0hp_9892uMHadr-28" edge="1">
          <mxGeometry width="50" height="50" relative="1" as="geometry">
            <mxPoint x="-260" y="891" as="sourcePoint" />
            <mxPoint x="130" y="858" as="targetPoint" />
          </mxGeometry>
        </mxCell>
        <mxCell id="AVVicG0hp_9892uMHadr-33" value="пользователь &lt;br&gt;выбирает &lt;br&gt;специальность" style="edgeLabel;html=1;align=center;verticalAlign=middle;resizable=0;points=[];" parent="AVVicG0hp_9892uMHadr-32" vertex="1" connectable="0">
          <mxGeometry x="0.1079" relative="1" as="geometry">
            <mxPoint x="-10" y="-23" as="offset" />
          </mxGeometry>
        </mxCell>
        <mxCell id="AVVicG0hp_9892uMHadr-34" value="" style="endArrow=classic;html=1;rounded=0;entryX=-0.007;entryY=0.825;entryDx=0;entryDy=0;entryPerimeter=0;" parent="v4R56gEZ0l0kGXcazd9q-2" target="j_ujcyk-bJkYESmtgM9s-15" edge="1">
          <mxGeometry width="50" height="50" relative="1" as="geometry">
            <mxPoint x="-50" y="915" as="sourcePoint" />
            <mxPoint x="30" y="915" as="targetPoint" />
          </mxGeometry>
        </mxCell>
        <mxCell id="AVVicG0hp_9892uMHadr-46" value="специальность" style="edgeLabel;html=1;align=center;verticalAlign=middle;resizable=0;points=[];" parent="AVVicG0hp_9892uMHadr-34" vertex="1" connectable="0">
          <mxGeometry x="-0.3037" y="1" relative="1" as="geometry">
            <mxPoint x="12" y="-17" as="offset" />
          </mxGeometry>
        </mxCell>
        <mxCell id="j_ujcyk-bJkYESmtgM9s-12" value="сохранение списка специальностей в переменную" style="rounded=0;whiteSpace=wrap;html=1;" parent="v4R56gEZ0l0kGXcazd9q-2" vertex="1">
          <mxGeometry x="40" y="709" width="120" height="60" as="geometry" />
        </mxCell>
        <mxCell id="j_ujcyk-bJkYESmtgM9s-15" value="" style="rounded=0;whiteSpace=wrap;html=1;" parent="v4R56gEZ0l0kGXcazd9q-2" vertex="1">
          <mxGeometry x="40" y="799" width="120" height="141" as="geometry" />
        </mxCell>
        <mxCell id="j_ujcyk-bJkYESmtgM9s-16" value="" style="endArrow=classic;html=1;rounded=0;exitX=0.5;exitY=1;exitDx=0;exitDy=0;entryX=0.5;entryY=0;entryDx=0;entryDy=0;" parent="v4R56gEZ0l0kGXcazd9q-2" source="j_ujcyk-bJkYESmtgM9s-12" target="j_ujcyk-bJkYESmtgM9s-15" edge="1">
          <mxGeometry width="50" height="50" relative="1" as="geometry">
            <mxPoint x="-40" y="869" as="sourcePoint" />
            <mxPoint x="10" y="819" as="targetPoint" />
          </mxGeometry>
        </mxCell>
        <mxCell id="AVVicG0hp_9892uMHadr-48" value="" style="endArrow=classic;html=1;rounded=0;" parent="v4R56gEZ0l0kGXcazd9q-2" edge="1">
          <mxGeometry width="50" height="50" relative="1" as="geometry">
            <mxPoint x="40" y="1308" as="sourcePoint" />
            <mxPoint x="-50" y="1308" as="targetPoint" />
          </mxGeometry>
        </mxCell>
        <mxCell id="AVVicG0hp_9892uMHadr-50" value="переадресация со &lt;br&gt;списком &lt;br&gt;докторов и &lt;br&gt;их &lt;br&gt;расписанием" style="edgeLabel;html=1;align=center;verticalAlign=middle;resizable=0;points=[];" parent="AVVicG0hp_9892uMHadr-48" vertex="1" connectable="0">
          <mxGeometry x="-0.419" y="2" relative="1" as="geometry">
            <mxPoint x="-24" y="-38" as="offset" />
          </mxGeometry>
        </mxCell>
        <mxCell id="AVVicG0hp_9892uMHadr-47" value="страница с выбором доктора, времени и даты" style="rounded=0;whiteSpace=wrap;html=1;" parent="v4R56gEZ0l0kGXcazd9q-2" vertex="1">
          <mxGeometry x="-170" y="1278" width="120" height="140" as="geometry" />
        </mxCell>
        <mxCell id="AVVicG0hp_9892uMHadr-49" value="" style="endArrow=classic;html=1;rounded=0;exitX=-0.003;exitY=0.219;exitDx=0;exitDy=0;exitPerimeter=0;" parent="v4R56gEZ0l0kGXcazd9q-2" source="AVVicG0hp_9892uMHadr-47" edge="1">
          <mxGeometry width="50" height="50" relative="1" as="geometry">
            <mxPoint x="80" y="1318" as="sourcePoint" />
            <mxPoint x="-260" y="1308" as="targetPoint" />
          </mxGeometry>
        </mxCell>
        <mxCell id="AVVicG0hp_9892uMHadr-51" value="" style="endArrow=classic;html=1;rounded=0;entryX=0;entryY=0.75;entryDx=0;entryDy=0;" parent="v4R56gEZ0l0kGXcazd9q-2" target="AVVicG0hp_9892uMHadr-47" edge="1">
          <mxGeometry width="50" height="50" relative="1" as="geometry">
            <mxPoint x="-270" y="1383" as="sourcePoint" />
            <mxPoint x="130" y="1268" as="targetPoint" />
          </mxGeometry>
        </mxCell>
        <mxCell id="AVVicG0hp_9892uMHadr-52" value="пользователь выбирает &lt;br&gt;доктора, &lt;br&gt;дату и время" style="edgeLabel;html=1;align=center;verticalAlign=middle;resizable=0;points=[];" parent="AVVicG0hp_9892uMHadr-51" vertex="1" connectable="0">
          <mxGeometry x="0.3365" y="-2" relative="1" as="geometry">
            <mxPoint x="-40" y="23" as="offset" />
          </mxGeometry>
        </mxCell>
        <mxCell id="j_ujcyk-bJkYESmtgM9s-31" style="edgeStyle=orthogonalEdgeStyle;rounded=0;orthogonalLoop=1;jettySize=auto;html=1;exitX=0.5;exitY=1;exitDx=0;exitDy=0;entryX=0.5;entryY=0;entryDx=0;entryDy=0;" parent="v4R56gEZ0l0kGXcazd9q-2" source="j_ujcyk-bJkYESmtgM9s-26" target="j_ujcyk-bJkYESmtgM9s-30" edge="1">
          <mxGeometry relative="1" as="geometry" />
        </mxCell>
        <mxCell id="j_ujcyk-bJkYESmtgM9s-26" value="сохранение списка расписания в переменную" style="rounded=0;whiteSpace=wrap;html=1;" parent="v4R56gEZ0l0kGXcazd9q-2" vertex="1">
          <mxGeometry x="40" y="1189" width="120" height="60" as="geometry" />
        </mxCell>
        <mxCell id="j_ujcyk-bJkYESmtgM9s-30" value="" style="rounded=0;whiteSpace=wrap;html=1;" parent="v4R56gEZ0l0kGXcazd9q-2" vertex="1">
          <mxGeometry x="40" y="1279" width="120" height="151" as="geometry" />
        </mxCell>
        <mxCell id="iH0Iw84YJGZlvLgJqFwu-25" value="" style="endArrow=classic;html=1;rounded=0;exitX=1;exitY=0.75;exitDx=0;exitDy=0;entryX=0.002;entryY=0.693;entryDx=0;entryDy=0;entryPerimeter=0;" edge="1" parent="v4R56gEZ0l0kGXcazd9q-2" source="AVVicG0hp_9892uMHadr-47" target="j_ujcyk-bJkYESmtgM9s-30">
          <mxGeometry width="50" height="50" relative="1" as="geometry">
            <mxPoint x="180" y="1469" as="sourcePoint" />
            <mxPoint x="230" y="1419" as="targetPoint" />
          </mxGeometry>
        </mxCell>
        <mxCell id="AVVicG0hp_9892uMHadr-64" value="страница для подтверждения записи" style="rounded=0;whiteSpace=wrap;html=1;" parent="v4R56gEZ0l0kGXcazd9q-2" vertex="1">
          <mxGeometry x="-170" y="1758" width="120" height="220" as="geometry" />
        </mxCell>
        <mxCell id="AVVicG0hp_9892uMHadr-68" value="" style="endArrow=classic;html=1;rounded=0;" parent="v4R56gEZ0l0kGXcazd9q-2" edge="1">
          <mxGeometry width="50" height="50" relative="1" as="geometry">
            <mxPoint x="-249.04000000000002" y="1908.48" as="sourcePoint" />
            <mxPoint x="-170" y="1908" as="targetPoint" />
          </mxGeometry>
        </mxCell>
        <mxCell id="AVVicG0hp_9892uMHadr-69" value="пользователь &lt;br&gt;подтверждает&lt;br&gt;запись" style="edgeLabel;html=1;align=center;verticalAlign=middle;resizable=0;points=[];" parent="AVVicG0hp_9892uMHadr-68" vertex="1" connectable="0">
          <mxGeometry x="0.306" y="-1" relative="1" as="geometry">
            <mxPoint x="-19" y="20" as="offset" />
          </mxGeometry>
        </mxCell>
        <mxCell id="j_ujcyk-bJkYESmtgM9s-41" value="" style="rounded=0;whiteSpace=wrap;html=1;" parent="v4R56gEZ0l0kGXcazd9q-2" vertex="1">
          <mxGeometry x="40" y="1769" width="120" height="181" as="geometry" />
        </mxCell>
        <mxCell id="j_ujcyk-bJkYESmtgM9s-42" value="" style="endArrow=classic;html=1;rounded=0;exitX=0.5;exitY=1;exitDx=0;exitDy=0;entryX=0.5;entryY=0;entryDx=0;entryDy=0;" parent="v4R56gEZ0l0kGXcazd9q-2" source="j_ujcyk-bJkYESmtgM9s-39" target="j_ujcyk-bJkYESmtgM9s-41" edge="1">
          <mxGeometry width="50" height="50" relative="1" as="geometry">
            <mxPoint x="120" y="1769" as="sourcePoint" />
            <mxPoint x="170" y="1719" as="targetPoint" />
          </mxGeometry>
        </mxCell>
        <mxCell id="AVVicG0hp_9892uMHadr-65" value="" style="endArrow=classic;html=1;rounded=0;entryX=1.018;entryY=0.187;entryDx=0;entryDy=0;exitX=-0.019;exitY=0.181;exitDx=0;exitDy=0;entryPerimeter=0;exitPerimeter=0;" parent="v4R56gEZ0l0kGXcazd9q-2" source="j_ujcyk-bJkYESmtgM9s-41" target="AVVicG0hp_9892uMHadr-64" edge="1">
          <mxGeometry width="50" height="50" relative="1" as="geometry">
            <mxPoint x="40" y="1888" as="sourcePoint" />
            <mxPoint x="150" y="1718" as="targetPoint" />
          </mxGeometry>
        </mxCell>
        <mxCell id="AVVicG0hp_9892uMHadr-67" value="переадресация" style="edgeLabel;html=1;align=center;verticalAlign=middle;resizable=0;points=[];" parent="AVVicG0hp_9892uMHadr-65" vertex="1" connectable="0">
          <mxGeometry x="-0.175" y="1" relative="1" as="geometry">
            <mxPoint x="-8" y="-11" as="offset" />
          </mxGeometry>
        </mxCell>
        <mxCell id="AVVicG0hp_9892uMHadr-66" value="" style="endArrow=classic;html=1;rounded=0;exitX=-0.004;exitY=0.181;exitDx=0;exitDy=0;exitPerimeter=0;" parent="v4R56gEZ0l0kGXcazd9q-2" source="AVVicG0hp_9892uMHadr-64" edge="1">
          <mxGeometry width="50" height="50" relative="1" as="geometry">
            <mxPoint x="100" y="1878" as="sourcePoint" />
            <mxPoint x="-260" y="1798" as="targetPoint" />
          </mxGeometry>
        </mxCell>
        <mxCell id="j_ujcyk-bJkYESmtgM9s-39" value="сохранение информации в переменную" style="rounded=0;whiteSpace=wrap;html=1;" parent="v4R56gEZ0l0kGXcazd9q-2" vertex="1">
          <mxGeometry x="40" y="1649" width="120" height="60" as="geometry" />
        </mxCell>
        <mxCell id="AVVicG0hp_9892uMHadr-70" value="" style="endArrow=classic;html=1;rounded=0;exitX=1.01;exitY=0.685;exitDx=0;exitDy=0;exitPerimeter=0;entryX=-0.006;entryY=0.778;entryDx=0;entryDy=0;entryPerimeter=0;" parent="v4R56gEZ0l0kGXcazd9q-2" source="AVVicG0hp_9892uMHadr-64" target="j_ujcyk-bJkYESmtgM9s-41" edge="1">
          <mxGeometry width="50" height="50" relative="1" as="geometry">
            <mxPoint x="-41.559999999999945" y="1908.68" as="sourcePoint" />
            <mxPoint x="30" y="1909" as="targetPoint" />
          </mxGeometry>
        </mxCell>
        <mxCell id="j_ujcyk-bJkYESmtgM9s-53" value="" style="rounded=0;whiteSpace=wrap;html=1;" parent="v4R56gEZ0l0kGXcazd9q-2" vertex="1">
          <mxGeometry x="40" y="2059" width="120" height="60" as="geometry" />
        </mxCell>
        <mxCell id="j_ujcyk-bJkYESmtgM9s-62" value="" style="endArrow=classic;html=1;rounded=0;" parent="v4R56gEZ0l0kGXcazd9q-2" edge="1">
          <mxGeometry width="50" height="50" relative="1" as="geometry">
            <mxPoint x="39" y="2439" as="sourcePoint" />
            <mxPoint x="-51" y="2439" as="targetPoint" />
          </mxGeometry>
        </mxCell>
        <mxCell id="j_ujcyk-bJkYESmtgM9s-63" value="переадресация со &lt;br&gt;списком &lt;br&gt;докторов и&lt;br&gt;пустым списком&lt;br&gt;расписания" style="edgeLabel;html=1;align=center;verticalAlign=middle;resizable=0;points=[];" parent="j_ujcyk-bJkYESmtgM9s-62" vertex="1" connectable="0">
          <mxGeometry x="-0.419" y="2" relative="1" as="geometry">
            <mxPoint x="-16" y="47" as="offset" />
          </mxGeometry>
        </mxCell>
        <mxCell id="j_ujcyk-bJkYESmtgM9s-71" value="&lt;span style=&quot;color: rgb(0, 0, 0); font-family: Helvetica; font-size: 12px; font-style: normal; font-variant-ligatures: normal; font-variant-caps: normal; font-weight: 400; letter-spacing: normal; orphans: 2; text-indent: 0px; text-transform: none; widows: 2; word-spacing: 0px; -webkit-text-stroke-width: 0px; white-space: normal; background-color: rgb(251, 251, 251); text-decoration-thickness: initial; text-decoration-style: initial; text-decoration-color: initial; float: none; display: inline !important;&quot;&gt;список &lt;br&gt;докторов&lt;br&gt;&amp;nbsp;и никаких времени &lt;br&gt;или дат&lt;/span&gt;" style="text;whiteSpace=wrap;html=1;align=center;" parent="v4R56gEZ0l0kGXcazd9q-2" vertex="1">
          <mxGeometry x="151.5" y="2289" width="100" height="40" as="geometry" />
        </mxCell>
        <mxCell id="j_ujcyk-bJkYESmtgM9s-65" style="edgeStyle=orthogonalEdgeStyle;rounded=0;orthogonalLoop=1;jettySize=auto;html=1;exitX=0.5;exitY=1;exitDx=0;exitDy=0;entryX=0.5;entryY=0;entryDx=0;entryDy=0;" parent="v4R56gEZ0l0kGXcazd9q-2" source="j_ujcyk-bJkYESmtgM9s-66" target="j_ujcyk-bJkYESmtgM9s-67" edge="1">
          <mxGeometry relative="1" as="geometry" />
        </mxCell>
        <mxCell id="j_ujcyk-bJkYESmtgM9s-66" value="сохранение списка расписания в переменную" style="rounded=0;whiteSpace=wrap;html=1;" parent="v4R56gEZ0l0kGXcazd9q-2" vertex="1">
          <mxGeometry x="39" y="2299" width="120" height="60" as="geometry" />
        </mxCell>
        <mxCell id="j_ujcyk-bJkYESmtgM9s-67" value="" style="rounded=0;whiteSpace=wrap;html=1;" parent="v4R56gEZ0l0kGXcazd9q-2" vertex="1">
          <mxGeometry x="39" y="2389" width="120" height="60" as="geometry" />
        </mxCell>
        <mxCell id="j_ujcyk-bJkYESmtgM9s-68" value="соединение с бд" style="rounded=0;whiteSpace=wrap;html=1;" parent="v4R56gEZ0l0kGXcazd9q-2" vertex="1">
          <mxGeometry x="239" y="2211" width="120" height="60" as="geometry" />
        </mxCell>
        <mxCell id="j_ujcyk-bJkYESmtgM9s-69" value="" style="endArrow=classic;html=1;rounded=0;" parent="v4R56gEZ0l0kGXcazd9q-2" edge="1">
          <mxGeometry width="50" height="50" relative="1" as="geometry">
            <mxPoint x="449" y="2246" as="sourcePoint" />
            <mxPoint x="359" y="2246" as="targetPoint" />
          </mxGeometry>
        </mxCell>
        <mxCell id="j_ujcyk-bJkYESmtgM9s-70" value="получение данных&amp;nbsp;&lt;br&gt;из запроса" style="edgeLabel;html=1;align=center;verticalAlign=middle;resizable=0;points=[];" parent="v4R56gEZ0l0kGXcazd9q-2" vertex="1" connectable="0">
          <mxGeometry x="424" y="2226" as="geometry">
            <mxPoint x="-6" y="-2" as="offset" />
          </mxGeometry>
        </mxCell>
        <mxCell id="j_ujcyk-bJkYESmtgM9s-72" value="" style="endArrow=classic;html=1;rounded=0;entryX=1;entryY=0.5;entryDx=0;entryDy=0;" parent="v4R56gEZ0l0kGXcazd9q-2" target="j_ujcyk-bJkYESmtgM9s-66" edge="1">
          <mxGeometry width="50" height="50" relative="1" as="geometry">
            <mxPoint x="238.99999999999977" y="2329" as="sourcePoint" />
            <mxPoint x="169" y="2333" as="targetPoint" />
          </mxGeometry>
        </mxCell>
        <mxCell id="j_ujcyk-bJkYESmtgM9s-75" value="" style="endArrow=classic;html=1;rounded=0;exitX=-0.009;exitY=0.367;exitDx=0;exitDy=0;exitPerimeter=0;" parent="v4R56gEZ0l0kGXcazd9q-2" source="j_ujcyk-bJkYESmtgM9s-64" edge="1">
          <mxGeometry width="50" height="50" relative="1" as="geometry">
            <mxPoint x="-21" y="2409" as="sourcePoint" />
            <mxPoint x="-261" y="2439" as="targetPoint" />
          </mxGeometry>
        </mxCell>
        <mxCell id="j_ujcyk-bJkYESmtgM9s-64" value="страница ссообщение об неимени времени" style="rounded=0;whiteSpace=wrap;html=1;" parent="v4R56gEZ0l0kGXcazd9q-2" vertex="1">
          <mxGeometry x="-171" y="2389" width="120" height="140" as="geometry" />
        </mxCell>
        <mxCell id="v4R56gEZ0l0kGXcazd9q-3" value="model" style="swimlane;whiteSpace=wrap;html=1;" parent="1" vertex="1">
          <mxGeometry x="520" y="60" width="230" height="2560" as="geometry" />
        </mxCell>
        <mxCell id="AVVicG0hp_9892uMHadr-27" value="" style="endArrow=classic;html=1;rounded=0;exitX=0.5;exitY=1;exitDx=0;exitDy=0;entryX=0.5;entryY=0;entryDx=0;entryDy=0;" parent="v4R56gEZ0l0kGXcazd9q-3" source="AVVicG0hp_9892uMHadr-18" target="AVVicG0hp_9892uMHadr-20" edge="1">
          <mxGeometry width="50" height="50" relative="1" as="geometry">
            <mxPoint x="-90" y="710" as="sourcePoint" />
            <mxPoint x="20" y="540" as="targetPoint" />
          </mxGeometry>
        </mxCell>
        <mxCell id="AVVicG0hp_9892uMHadr-18" value="поиск специальностей" style="rounded=0;whiteSpace=wrap;html=1;" parent="v4R56gEZ0l0kGXcazd9q-3" vertex="1">
          <mxGeometry x="50" y="450" width="120" height="60" as="geometry" />
        </mxCell>
        <mxCell id="j_ujcyk-bJkYESmtgM9s-11" value="&lt;span style=&quot;color: rgb(0, 0, 0); font-family: Helvetica; font-size: 12px; font-style: normal; font-variant-ligatures: normal; font-variant-caps: normal; font-weight: 400; letter-spacing: normal; orphans: 2; text-indent: 0px; text-transform: none; widows: 2; word-spacing: 0px; -webkit-text-stroke-width: 0px; white-space: normal; background-color: rgb(251, 251, 251); text-decoration-thickness: initial; text-decoration-style: initial; text-decoration-color: initial; float: none; display: inline !important;&quot;&gt;список всех &lt;br&gt;возможных &lt;br&gt;специальностей&lt;/span&gt;" style="text;whiteSpace=wrap;html=1;align=center;" parent="v4R56gEZ0l0kGXcazd9q-3" vertex="1">
          <mxGeometry x="-10" y="665" width="35" height="40" as="geometry" />
        </mxCell>
        <mxCell id="AVVicG0hp_9892uMHadr-1" style="edgeStyle=orthogonalEdgeStyle;rounded=0;orthogonalLoop=1;jettySize=auto;html=1;exitX=0.5;exitY=1;exitDx=0;exitDy=0;" parent="v4R56gEZ0l0kGXcazd9q-3" source="AVVicG0hp_9892uMHadr-2" target="AVVicG0hp_9892uMHadr-5" edge="1">
          <mxGeometry relative="1" as="geometry" />
        </mxCell>
        <mxCell id="j_ujcyk-bJkYESmtgM9s-19" value="запрос и конфиг для подключения" style="edgeLabel;html=1;align=center;verticalAlign=middle;resizable=0;points=[];" parent="v4R56gEZ0l0kGXcazd9q-3" vertex="1" connectable="0">
          <mxGeometry x="110" y="190.00285714285712" as="geometry" />
        </mxCell>
        <mxCell id="AVVicG0hp_9892uMHadr-2" value="создание запроса с параметром с помощью sql_provider" style="rounded=0;whiteSpace=wrap;html=1;" parent="v4R56gEZ0l0kGXcazd9q-3" vertex="1">
          <mxGeometry x="50" y="120" width="120" height="60" as="geometry" />
        </mxCell>
        <mxCell id="AVVicG0hp_9892uMHadr-5" value="соединение с бд" style="rounded=0;whiteSpace=wrap;html=1;" parent="v4R56gEZ0l0kGXcazd9q-3" vertex="1">
          <mxGeometry x="50" y="210" width="120" height="60" as="geometry" />
        </mxCell>
        <mxCell id="AVVicG0hp_9892uMHadr-7" value="" style="rounded=0;whiteSpace=wrap;html=1;" parent="v4R56gEZ0l0kGXcazd9q-3" vertex="1">
          <mxGeometry x="50" y="290" width="120" height="60" as="geometry" />
        </mxCell>
        <mxCell id="v4R56gEZ0l0kGXcazd9q-6" value="получение персональных данных пользователя" style="rounded=0;whiteSpace=wrap;html=1;" parent="v4R56gEZ0l0kGXcazd9q-3" vertex="1">
          <mxGeometry x="50" y="40" width="120" height="60" as="geometry" />
        </mxCell>
        <mxCell id="iH0Iw84YJGZlvLgJqFwu-2" value="" style="endArrow=classic;html=1;rounded=0;exitX=0.5;exitY=1;exitDx=0;exitDy=0;entryX=0.5;entryY=0;entryDx=0;entryDy=0;" edge="1" parent="v4R56gEZ0l0kGXcazd9q-3" source="v4R56gEZ0l0kGXcazd9q-6" target="AVVicG0hp_9892uMHadr-2">
          <mxGeometry width="50" height="50" relative="1" as="geometry">
            <mxPoint x="20" y="180" as="sourcePoint" />
            <mxPoint x="70" y="130" as="targetPoint" />
          </mxGeometry>
        </mxCell>
        <mxCell id="AVVicG0hp_9892uMHadr-24" value="" style="rounded=0;whiteSpace=wrap;html=1;" parent="v4R56gEZ0l0kGXcazd9q-3" vertex="1">
          <mxGeometry x="50" y="705" width="120" height="60" as="geometry" />
        </mxCell>
        <mxCell id="iH0Iw84YJGZlvLgJqFwu-12" style="edgeStyle=orthogonalEdgeStyle;rounded=0;orthogonalLoop=1;jettySize=auto;html=1;exitX=0.5;exitY=1;exitDx=0;exitDy=0;entryX=0.5;entryY=0;entryDx=0;entryDy=0;" edge="1" parent="v4R56gEZ0l0kGXcazd9q-3" source="AVVicG0hp_9892uMHadr-23" target="AVVicG0hp_9892uMHadr-24">
          <mxGeometry relative="1" as="geometry" />
        </mxCell>
        <mxCell id="AVVicG0hp_9892uMHadr-23" value="соединение с бд" style="rounded=0;whiteSpace=wrap;html=1;" parent="v4R56gEZ0l0kGXcazd9q-3" vertex="1">
          <mxGeometry x="50" y="620" width="120" height="60" as="geometry" />
        </mxCell>
        <mxCell id="j_ujcyk-bJkYESmtgM9s-6" style="edgeStyle=orthogonalEdgeStyle;rounded=0;orthogonalLoop=1;jettySize=auto;html=1;exitX=0.5;exitY=1;exitDx=0;exitDy=0;entryX=0.5;entryY=0;entryDx=0;entryDy=0;" parent="v4R56gEZ0l0kGXcazd9q-3" source="AVVicG0hp_9892uMHadr-20" target="AVVicG0hp_9892uMHadr-23" edge="1">
          <mxGeometry relative="1" as="geometry" />
        </mxCell>
        <mxCell id="AVVicG0hp_9892uMHadr-20" value="создание запроса с параметром с помощью sql_provider" style="rounded=0;whiteSpace=wrap;html=1;" parent="v4R56gEZ0l0kGXcazd9q-3" vertex="1">
          <mxGeometry x="50" y="530" width="120" height="60" as="geometry" />
        </mxCell>
        <mxCell id="j_ujcyk-bJkYESmtgM9s-20" value="запрос и конфиг для подключения" style="edgeLabel;html=1;align=center;verticalAlign=middle;resizable=0;points=[];" parent="v4R56gEZ0l0kGXcazd9q-3" vertex="1" connectable="0">
          <mxGeometry x="110" y="600.0028571428571" as="geometry" />
        </mxCell>
        <mxCell id="iH0Iw84YJGZlvLgJqFwu-3" style="edgeStyle=orthogonalEdgeStyle;rounded=0;orthogonalLoop=1;jettySize=auto;html=1;exitX=1;exitY=0.5;exitDx=0;exitDy=0;" edge="1" parent="v4R56gEZ0l0kGXcazd9q-3">
          <mxGeometry relative="1" as="geometry">
            <mxPoint x="280" y="229.56476190476195" as="targetPoint" />
            <mxPoint x="170" y="229.66000000000003" as="sourcePoint" />
          </mxGeometry>
        </mxCell>
        <mxCell id="iH0Iw84YJGZlvLgJqFwu-4" value="передача запроса на выполнение" style="edgeLabel;html=1;align=center;verticalAlign=middle;resizable=0;points=[];" vertex="1" connectable="0" parent="iH0Iw84YJGZlvLgJqFwu-3">
          <mxGeometry x="0.2088" relative="1" as="geometry">
            <mxPoint x="24" y="-10" as="offset" />
          </mxGeometry>
        </mxCell>
        <mxCell id="iH0Iw84YJGZlvLgJqFwu-5" value="" style="endArrow=classic;html=1;rounded=0;entryX=1.011;entryY=0.828;entryDx=0;entryDy=0;entryPerimeter=0;" edge="1" parent="v4R56gEZ0l0kGXcazd9q-3">
          <mxGeometry width="50" height="50" relative="1" as="geometry">
            <mxPoint x="280" y="249.87" as="sourcePoint" />
            <mxPoint x="171" y="249.87" as="targetPoint" />
          </mxGeometry>
        </mxCell>
        <mxCell id="iH0Iw84YJGZlvLgJqFwu-6" value="получение данных из запроса" style="edgeLabel;html=1;align=center;verticalAlign=middle;resizable=0;points=[];" vertex="1" connectable="0" parent="iH0Iw84YJGZlvLgJqFwu-5">
          <mxGeometry x="-0.2193" y="-3" relative="1" as="geometry">
            <mxPoint x="12" y="15" as="offset" />
          </mxGeometry>
        </mxCell>
        <mxCell id="iH0Iw84YJGZlvLgJqFwu-7" value="" style="endArrow=classic;html=1;rounded=0;exitX=0.5;exitY=1;exitDx=0;exitDy=0;entryX=0.5;entryY=0;entryDx=0;entryDy=0;" edge="1" parent="v4R56gEZ0l0kGXcazd9q-3" source="AVVicG0hp_9892uMHadr-5" target="AVVicG0hp_9892uMHadr-7">
          <mxGeometry width="50" height="50" relative="1" as="geometry">
            <mxPoint x="30" y="270" as="sourcePoint" />
            <mxPoint x="80" y="220" as="targetPoint" />
          </mxGeometry>
        </mxCell>
        <mxCell id="iH0Iw84YJGZlvLgJqFwu-8" style="edgeStyle=orthogonalEdgeStyle;rounded=0;orthogonalLoop=1;jettySize=auto;html=1;exitX=1;exitY=0.5;exitDx=0;exitDy=0;" edge="1" parent="v4R56gEZ0l0kGXcazd9q-3">
          <mxGeometry relative="1" as="geometry">
            <mxPoint x="280" y="639.4347619047619" as="targetPoint" />
            <mxPoint x="170" y="639.53" as="sourcePoint" />
          </mxGeometry>
        </mxCell>
        <mxCell id="iH0Iw84YJGZlvLgJqFwu-9" value="передача запроса на выполнение" style="edgeLabel;html=1;align=center;verticalAlign=middle;resizable=0;points=[];" vertex="1" connectable="0" parent="iH0Iw84YJGZlvLgJqFwu-8">
          <mxGeometry x="0.2088" relative="1" as="geometry">
            <mxPoint x="24" y="-10" as="offset" />
          </mxGeometry>
        </mxCell>
        <mxCell id="iH0Iw84YJGZlvLgJqFwu-10" value="" style="endArrow=classic;html=1;rounded=0;entryX=1.011;entryY=0.828;entryDx=0;entryDy=0;entryPerimeter=0;" edge="1" parent="v4R56gEZ0l0kGXcazd9q-3">
          <mxGeometry width="50" height="50" relative="1" as="geometry">
            <mxPoint x="280" y="659.7399999999999" as="sourcePoint" />
            <mxPoint x="171" y="659.7399999999999" as="targetPoint" />
          </mxGeometry>
        </mxCell>
        <mxCell id="iH0Iw84YJGZlvLgJqFwu-11" value="получение данных из запроса" style="edgeLabel;html=1;align=center;verticalAlign=middle;resizable=0;points=[];" vertex="1" connectable="0" parent="iH0Iw84YJGZlvLgJqFwu-10">
          <mxGeometry x="-0.2193" y="-3" relative="1" as="geometry">
            <mxPoint x="12" y="15" as="offset" />
          </mxGeometry>
        </mxCell>
        <mxCell id="iH0Iw84YJGZlvLgJqFwu-15" style="edgeStyle=orthogonalEdgeStyle;rounded=0;orthogonalLoop=1;jettySize=auto;html=1;exitX=0.5;exitY=1;exitDx=0;exitDy=0;entryX=0.5;entryY=0;entryDx=0;entryDy=0;" edge="1" parent="v4R56gEZ0l0kGXcazd9q-3" source="AVVicG0hp_9892uMHadr-35" target="AVVicG0hp_9892uMHadr-37">
          <mxGeometry relative="1" as="geometry" />
        </mxCell>
        <mxCell id="AVVicG0hp_9892uMHadr-35" value="поиск доктора по специальности и доступных даты и времени" style="rounded=0;whiteSpace=wrap;html=1;" parent="v4R56gEZ0l0kGXcazd9q-3" vertex="1">
          <mxGeometry x="50" y="900" width="120" height="60" as="geometry" />
        </mxCell>
        <mxCell id="j_ujcyk-bJkYESmtgM9s-21" style="edgeStyle=orthogonalEdgeStyle;rounded=0;orthogonalLoop=1;jettySize=auto;html=1;exitX=0.5;exitY=1;exitDx=0;exitDy=0;entryX=0.5;entryY=0;entryDx=0;entryDy=0;" parent="v4R56gEZ0l0kGXcazd9q-3" source="AVVicG0hp_9892uMHadr-37" target="AVVicG0hp_9892uMHadr-40" edge="1">
          <mxGeometry relative="1" as="geometry" />
        </mxCell>
        <mxCell id="AVVicG0hp_9892uMHadr-37" value="создание запроса с параметром с помощью sql_provider" style="rounded=0;whiteSpace=wrap;html=1;" parent="v4R56gEZ0l0kGXcazd9q-3" vertex="1">
          <mxGeometry x="50" y="1000" width="120" height="60" as="geometry" />
        </mxCell>
        <mxCell id="iH0Iw84YJGZlvLgJqFwu-24" style="edgeStyle=orthogonalEdgeStyle;rounded=0;orthogonalLoop=1;jettySize=auto;html=1;exitX=0.5;exitY=1;exitDx=0;exitDy=0;entryX=0.5;entryY=0;entryDx=0;entryDy=0;" edge="1" parent="v4R56gEZ0l0kGXcazd9q-3" source="AVVicG0hp_9892uMHadr-40" target="j_ujcyk-bJkYESmtgM9s-23">
          <mxGeometry relative="1" as="geometry" />
        </mxCell>
        <mxCell id="AVVicG0hp_9892uMHadr-40" value="соединение с бд" style="rounded=0;whiteSpace=wrap;html=1;" parent="v4R56gEZ0l0kGXcazd9q-3" vertex="1">
          <mxGeometry x="50" y="1100" width="120" height="60" as="geometry" />
        </mxCell>
        <mxCell id="j_ujcyk-bJkYESmtgM9s-22" value="запрос и конфиг для подключения" style="edgeLabel;html=1;align=center;verticalAlign=middle;resizable=0;points=[];" parent="v4R56gEZ0l0kGXcazd9q-3" vertex="1" connectable="0">
          <mxGeometry x="112" y="1075.002857142857" as="geometry" />
        </mxCell>
        <mxCell id="j_ujcyk-bJkYESmtgM9s-23" value="" style="rounded=0;whiteSpace=wrap;html=1;" parent="v4R56gEZ0l0kGXcazd9q-3" vertex="1">
          <mxGeometry x="50" y="1190" width="120" height="60" as="geometry" />
        </mxCell>
        <mxCell id="iH0Iw84YJGZlvLgJqFwu-20" style="edgeStyle=orthogonalEdgeStyle;rounded=0;orthogonalLoop=1;jettySize=auto;html=1;exitX=1;exitY=0.5;exitDx=0;exitDy=0;" edge="1" parent="v4R56gEZ0l0kGXcazd9q-3">
          <mxGeometry relative="1" as="geometry">
            <mxPoint x="280" y="1119.604761904762" as="targetPoint" />
            <mxPoint x="170" y="1119.7" as="sourcePoint" />
          </mxGeometry>
        </mxCell>
        <mxCell id="iH0Iw84YJGZlvLgJqFwu-21" value="передача запроса на выполнение" style="edgeLabel;html=1;align=center;verticalAlign=middle;resizable=0;points=[];" vertex="1" connectable="0" parent="iH0Iw84YJGZlvLgJqFwu-20">
          <mxGeometry x="0.2088" relative="1" as="geometry">
            <mxPoint x="24" y="-10" as="offset" />
          </mxGeometry>
        </mxCell>
        <mxCell id="iH0Iw84YJGZlvLgJqFwu-22" value="" style="endArrow=classic;html=1;rounded=0;entryX=1.011;entryY=0.828;entryDx=0;entryDy=0;entryPerimeter=0;" edge="1" parent="v4R56gEZ0l0kGXcazd9q-3">
          <mxGeometry width="50" height="50" relative="1" as="geometry">
            <mxPoint x="280" y="1139.9099999999999" as="sourcePoint" />
            <mxPoint x="171" y="1139.9099999999999" as="targetPoint" />
          </mxGeometry>
        </mxCell>
        <mxCell id="iH0Iw84YJGZlvLgJqFwu-23" value="получение данных из запроса" style="edgeLabel;html=1;align=center;verticalAlign=middle;resizable=0;points=[];" vertex="1" connectable="0" parent="iH0Iw84YJGZlvLgJqFwu-22">
          <mxGeometry x="-0.2193" y="-3" relative="1" as="geometry">
            <mxPoint x="12" y="15" as="offset" />
          </mxGeometry>
        </mxCell>
        <mxCell id="j_ujcyk-bJkYESmtgM9s-28" value="&lt;span style=&quot;color: rgb(0, 0, 0); font-family: Helvetica; font-size: 12px; font-style: normal; font-variant-ligatures: normal; font-variant-caps: normal; font-weight: 400; letter-spacing: normal; orphans: 2; text-indent: 0px; text-transform: none; widows: 2; word-spacing: 0px; -webkit-text-stroke-width: 0px; white-space: normal; background-color: rgb(251, 251, 251); text-decoration-thickness: initial; text-decoration-style: initial; text-decoration-color: initial; float: none; display: inline !important;&quot;&gt;список &lt;br&gt;докторов&lt;br&gt;&amp;nbsp;и дат и &lt;br&gt;времени, &lt;br&gt;которые свободны&lt;/span&gt;" style="text;whiteSpace=wrap;html=1;align=center;" parent="v4R56gEZ0l0kGXcazd9q-3" vertex="1">
          <mxGeometry x="-47.5" y="1120" width="100" height="40" as="geometry" />
        </mxCell>
        <mxCell id="AVVicG0hp_9892uMHadr-73" style="edgeStyle=orthogonalEdgeStyle;rounded=0;orthogonalLoop=1;jettySize=auto;html=1;exitX=0.5;exitY=1;exitDx=0;exitDy=0;" parent="v4R56gEZ0l0kGXcazd9q-3" edge="1">
          <mxGeometry relative="1" as="geometry">
            <mxPoint x="105" y="1800" as="sourcePoint" />
            <mxPoint x="105" y="1800" as="targetPoint" />
          </mxGeometry>
        </mxCell>
        <mxCell id="j_ujcyk-bJkYESmtgM9s-44" value="создание запроса с параметром с помощью sql_provider" style="rounded=0;whiteSpace=wrap;html=1;" parent="v4R56gEZ0l0kGXcazd9q-3" vertex="1">
          <mxGeometry x="55" y="1960" width="120" height="60" as="geometry" />
        </mxCell>
        <mxCell id="j_ujcyk-bJkYESmtgM9s-48" style="edgeStyle=orthogonalEdgeStyle;rounded=0;orthogonalLoop=1;jettySize=auto;html=1;exitX=0.5;exitY=1;exitDx=0;exitDy=0;entryX=0.5;entryY=0;entryDx=0;entryDy=0;" parent="v4R56gEZ0l0kGXcazd9q-3" edge="1">
          <mxGeometry relative="1" as="geometry">
            <mxPoint x="114" y="2020" as="sourcePoint" />
            <mxPoint x="114" y="2060" as="targetPoint" />
          </mxGeometry>
        </mxCell>
        <mxCell id="j_ujcyk-bJkYESmtgM9s-49" value="запрос и конфиг для подключения" style="edgeLabel;html=1;align=center;verticalAlign=middle;resizable=0;points=[];" parent="v4R56gEZ0l0kGXcazd9q-3" vertex="1" connectable="0">
          <mxGeometry x="117" y="2040.002857142857" as="geometry" />
        </mxCell>
        <mxCell id="iH0Iw84YJGZlvLgJqFwu-27" style="edgeStyle=orthogonalEdgeStyle;rounded=0;orthogonalLoop=1;jettySize=auto;html=1;entryX=0.5;entryY=0;entryDx=0;entryDy=0;" edge="1" parent="v4R56gEZ0l0kGXcazd9q-3" source="AVVicG0hp_9892uMHadr-54" target="AVVicG0hp_9892uMHadr-56">
          <mxGeometry relative="1" as="geometry" />
        </mxCell>
        <mxCell id="AVVicG0hp_9892uMHadr-54" value="поиск информации, для составления конечной страницы" style="rounded=0;whiteSpace=wrap;html=1;" parent="v4R56gEZ0l0kGXcazd9q-3" vertex="1">
          <mxGeometry x="52.5" y="1380" width="120" height="60" as="geometry" />
        </mxCell>
        <mxCell id="AVVicG0hp_9892uMHadr-56" value="создание запроса с параметром с помощью sql_provider" style="rounded=0;whiteSpace=wrap;html=1;" parent="v4R56gEZ0l0kGXcazd9q-3" vertex="1">
          <mxGeometry x="52.5" y="1469" width="120" height="60" as="geometry" />
        </mxCell>
        <mxCell id="iH0Iw84YJGZlvLgJqFwu-32" style="edgeStyle=orthogonalEdgeStyle;rounded=0;orthogonalLoop=1;jettySize=auto;html=1;exitX=0.5;exitY=1;exitDx=0;exitDy=0;entryX=0.5;entryY=0;entryDx=0;entryDy=0;" edge="1" parent="v4R56gEZ0l0kGXcazd9q-3" source="AVVicG0hp_9892uMHadr-59" target="AVVicG0hp_9892uMHadr-60">
          <mxGeometry relative="1" as="geometry" />
        </mxCell>
        <mxCell id="AVVicG0hp_9892uMHadr-59" value="соединение с бд" style="rounded=0;whiteSpace=wrap;html=1;" parent="v4R56gEZ0l0kGXcazd9q-3" vertex="1">
          <mxGeometry x="52.5" y="1569" width="120" height="60" as="geometry" />
        </mxCell>
        <mxCell id="j_ujcyk-bJkYESmtgM9s-34" style="edgeStyle=orthogonalEdgeStyle;rounded=0;orthogonalLoop=1;jettySize=auto;html=1;exitX=0.5;exitY=1;exitDx=0;exitDy=0;entryX=0.5;entryY=0;entryDx=0;entryDy=0;" parent="v4R56gEZ0l0kGXcazd9q-3" edge="1">
          <mxGeometry relative="1" as="geometry">
            <mxPoint x="111.5" y="1529" as="sourcePoint" />
            <mxPoint x="111.5" y="1569" as="targetPoint" />
          </mxGeometry>
        </mxCell>
        <mxCell id="j_ujcyk-bJkYESmtgM9s-35" value="запрос и конфиг для подключения" style="edgeLabel;html=1;align=center;verticalAlign=middle;resizable=0;points=[];" parent="v4R56gEZ0l0kGXcazd9q-3" vertex="1" connectable="0">
          <mxGeometry x="113.5" y="1544.002857142857" as="geometry" />
        </mxCell>
        <mxCell id="AVVicG0hp_9892uMHadr-60" value="" style="rounded=0;whiteSpace=wrap;html=1;" parent="v4R56gEZ0l0kGXcazd9q-3" vertex="1">
          <mxGeometry x="52.5" y="1649" width="120" height="60" as="geometry" />
        </mxCell>
        <mxCell id="iH0Iw84YJGZlvLgJqFwu-30" value="" style="endArrow=classic;html=1;rounded=0;entryX=1.011;entryY=0.828;entryDx=0;entryDy=0;entryPerimeter=0;" edge="1" parent="v4R56gEZ0l0kGXcazd9q-3">
          <mxGeometry width="50" height="50" relative="1" as="geometry">
            <mxPoint x="282.5" y="1608.81" as="sourcePoint" />
            <mxPoint x="173.5" y="1608.81" as="targetPoint" />
          </mxGeometry>
        </mxCell>
        <mxCell id="iH0Iw84YJGZlvLgJqFwu-31" value="получение данных из запроса" style="edgeLabel;html=1;align=center;verticalAlign=middle;resizable=0;points=[];" vertex="1" connectable="0" parent="iH0Iw84YJGZlvLgJqFwu-30">
          <mxGeometry x="-0.2193" y="-3" relative="1" as="geometry">
            <mxPoint x="12" y="15" as="offset" />
          </mxGeometry>
        </mxCell>
        <mxCell id="iH0Iw84YJGZlvLgJqFwu-28" style="edgeStyle=orthogonalEdgeStyle;rounded=0;orthogonalLoop=1;jettySize=auto;html=1;exitX=1;exitY=0.5;exitDx=0;exitDy=0;" edge="1" parent="v4R56gEZ0l0kGXcazd9q-3">
          <mxGeometry relative="1" as="geometry">
            <mxPoint x="282.5" y="1588.5047619047618" as="targetPoint" />
            <mxPoint x="172.5" y="1588.6" as="sourcePoint" />
          </mxGeometry>
        </mxCell>
        <mxCell id="iH0Iw84YJGZlvLgJqFwu-29" value="передача запроса на выполнение" style="edgeLabel;html=1;align=center;verticalAlign=middle;resizable=0;points=[];" vertex="1" connectable="0" parent="iH0Iw84YJGZlvLgJqFwu-28">
          <mxGeometry x="0.2088" relative="1" as="geometry">
            <mxPoint x="24" y="-10" as="offset" />
          </mxGeometry>
        </mxCell>
        <mxCell id="j_ujcyk-bJkYESmtgM9s-40" value="&lt;span style=&quot;color: rgb(0, 0, 0); font-family: Helvetica; font-size: 12px; font-style: normal; font-variant-ligatures: normal; font-variant-caps: normal; font-weight: 400; letter-spacing: normal; orphans: 2; text-indent: 0px; text-transform: none; widows: 2; word-spacing: 0px; -webkit-text-stroke-width: 0px; white-space: normal; background-color: rgb(251, 251, 251); text-decoration-thickness: initial; text-decoration-style: initial; text-decoration-color: initial; float: none; display: inline !important;&quot;&gt;информация,&amp;nbsp;&lt;/span&gt;&lt;div&gt;&lt;span style=&quot;color: rgb(0, 0, 0); font-family: Helvetica; font-size: 12px; font-style: normal; font-variant-ligatures: normal; font-variant-caps: normal; font-weight: 400; letter-spacing: normal; orphans: 2; text-indent: 0px; text-transform: none; widows: 2; word-spacing: 0px; -webkit-text-stroke-width: 0px; white-space: normal; background-color: rgb(251, 251, 251); text-decoration-thickness: initial; text-decoration-style: initial; text-decoration-color: initial; float: none; display: inline !important;&quot;&gt;для&amp;nbsp;&lt;/span&gt;&lt;/div&gt;&lt;div&gt;&lt;span style=&quot;color: rgb(0, 0, 0); font-family: Helvetica; font-size: 12px; font-style: normal; font-variant-ligatures: normal; font-variant-caps: normal; font-weight: 400; letter-spacing: normal; orphans: 2; text-indent: 0px; text-transform: none; widows: 2; word-spacing: 0px; -webkit-text-stroke-width: 0px; white-space: normal; background-color: rgb(251, 251, 251); text-decoration-thickness: initial; text-decoration-style: initial; text-decoration-color: initial; float: none; display: inline !important;&quot;&gt;формирования&amp;nbsp;&lt;/span&gt;&lt;/div&gt;&lt;div&gt;&lt;span style=&quot;color: rgb(0, 0, 0); font-family: Helvetica; font-size: 12px; font-style: normal; font-variant-ligatures: normal; font-variant-caps: normal; font-weight: 400; letter-spacing: normal; orphans: 2; text-indent: 0px; text-transform: none; widows: 2; word-spacing: 0px; -webkit-text-stroke-width: 0px; white-space: normal; background-color: rgb(251, 251, 251); text-decoration-thickness: initial; text-decoration-style: initial; text-decoration-color: initial; float: none; display: inline !important;&quot;&gt;страницы&lt;/span&gt;&lt;/div&gt;" style="text;whiteSpace=wrap;html=1;align=center;" parent="v4R56gEZ0l0kGXcazd9q-3" vertex="1">
          <mxGeometry x="-40" y="1680" width="90" height="40" as="geometry" />
        </mxCell>
        <mxCell id="iH0Iw84YJGZlvLgJqFwu-33" style="edgeStyle=orthogonalEdgeStyle;rounded=0;orthogonalLoop=1;jettySize=auto;html=1;exitX=0.5;exitY=1;exitDx=0;exitDy=0;entryX=0.5;entryY=0;entryDx=0;entryDy=0;" edge="1" parent="v4R56gEZ0l0kGXcazd9q-3" source="AVVicG0hp_9892uMHadr-72" target="j_ujcyk-bJkYESmtgM9s-44">
          <mxGeometry relative="1" as="geometry" />
        </mxCell>
        <mxCell id="AVVicG0hp_9892uMHadr-72" value="изменение занятности даты в системе" style="rounded=0;whiteSpace=wrap;html=1;" parent="v4R56gEZ0l0kGXcazd9q-3" vertex="1">
          <mxGeometry x="53.5" y="1880" width="120" height="60" as="geometry" />
        </mxCell>
        <mxCell id="j_ujcyk-bJkYESmtgM9s-45" value="соединение с бд" style="rounded=0;whiteSpace=wrap;html=1;" parent="v4R56gEZ0l0kGXcazd9q-3" vertex="1">
          <mxGeometry x="55" y="2060" width="120" height="60" as="geometry" />
        </mxCell>
        <mxCell id="iH0Iw84YJGZlvLgJqFwu-35" value="" style="rounded=0;whiteSpace=wrap;html=1;" vertex="1" parent="v4R56gEZ0l0kGXcazd9q-3">
          <mxGeometry x="40" y="2300" width="120" height="60" as="geometry" />
        </mxCell>
        <mxCell id="v4R56gEZ0l0kGXcazd9q-4" value="" style="endArrow=classic;html=1;rounded=0;" parent="1" target="iH0Iw84YJGZlvLgJqFwu-1" edge="1">
          <mxGeometry width="50" height="50" relative="1" as="geometry">
            <mxPoint x="80" y="130" as="sourcePoint" />
            <mxPoint x="340" y="120" as="targetPoint" />
          </mxGeometry>
        </mxCell>
        <mxCell id="v4R56gEZ0l0kGXcazd9q-5" value="пользователь входит в систему" style="edgeLabel;html=1;align=center;verticalAlign=middle;resizable=0;points=[];" parent="v4R56gEZ0l0kGXcazd9q-4" vertex="1" connectable="0">
          <mxGeometry x="0.1293" y="2" relative="1" as="geometry">
            <mxPoint x="-17" y="-8" as="offset" />
          </mxGeometry>
        </mxCell>
        <mxCell id="AVVicG0hp_9892uMHadr-10" value="" style="endArrow=classic;html=1;rounded=0;exitX=0;exitY=0.5;exitDx=0;exitDy=0;entryX=1;entryY=0.5;entryDx=0;entryDy=0;" parent="1" source="AVVicG0hp_9892uMHadr-7" target="j_ujcyk-bJkYESmtgM9s-3" edge="1">
          <mxGeometry width="50" height="50" relative="1" as="geometry">
            <mxPoint x="470" y="370" as="sourcePoint" />
            <mxPoint x="490" y="300" as="targetPoint" />
          </mxGeometry>
        </mxCell>
        <mxCell id="j_ujcyk-bJkYESmtgM9s-2" value="&lt;span style=&quot;color: rgb(0, 0, 0); font-family: Helvetica; font-size: 12px; font-style: normal; font-variant-ligatures: normal; font-variant-caps: normal; font-weight: 400; letter-spacing: normal; orphans: 2; text-indent: 0px; text-transform: none; widows: 2; word-spacing: 0px; -webkit-text-stroke-width: 0px; white-space: normal; background-color: rgb(251, 251, 251); text-decoration-thickness: initial; text-decoration-style: initial; text-decoration-color: initial; float: none; display: inline !important;&quot;&gt;данные о пользователе&lt;/span&gt;" style="text;whiteSpace=wrap;html=1;align=center;" parent="1" vertex="1">
          <mxGeometry x="480" y="334" width="90" height="40" as="geometry" />
        </mxCell>
        <mxCell id="AVVicG0hp_9892uMHadr-26" value="" style="endArrow=classic;html=1;rounded=0;exitX=0;exitY=0.5;exitDx=0;exitDy=0;entryX=1.003;entryY=0.427;entryDx=0;entryDy=0;entryPerimeter=0;" parent="1" source="AVVicG0hp_9892uMHadr-24" target="j_ujcyk-bJkYESmtgM9s-12" edge="1">
          <mxGeometry width="50" height="50" relative="1" as="geometry">
            <mxPoint x="465" y="755" as="sourcePoint" />
            <mxPoint x="485" y="685" as="targetPoint" />
          </mxGeometry>
        </mxCell>
        <mxCell id="j_ujcyk-bJkYESmtgM9s-27" value="" style="endArrow=classic;html=1;rounded=0;exitX=0;exitY=0.5;exitDx=0;exitDy=0;entryX=1;entryY=0.5;entryDx=0;entryDy=0;" parent="1" source="j_ujcyk-bJkYESmtgM9s-23" target="j_ujcyk-bJkYESmtgM9s-26" edge="1">
          <mxGeometry width="50" height="50" relative="1" as="geometry">
            <mxPoint x="440" y="1010" as="sourcePoint" />
            <mxPoint x="490" y="960" as="targetPoint" />
          </mxGeometry>
        </mxCell>
        <mxCell id="v4R56gEZ0l0kGXcazd9q-7" value="" style="endArrow=classic;html=1;rounded=0;exitX=1;exitY=0.5;exitDx=0;exitDy=0;entryX=0;entryY=0.5;entryDx=0;entryDy=0;" parent="1" source="iH0Iw84YJGZlvLgJqFwu-1" target="v4R56gEZ0l0kGXcazd9q-6" edge="1">
          <mxGeometry width="50" height="50" relative="1" as="geometry">
            <mxPoint x="510" y="240" as="sourcePoint" />
            <mxPoint x="560" y="130" as="targetPoint" />
          </mxGeometry>
        </mxCell>
        <mxCell id="v4R56gEZ0l0kGXcazd9q-8" value="id пользователя" style="edgeLabel;html=1;align=center;verticalAlign=middle;resizable=0;points=[];" parent="v4R56gEZ0l0kGXcazd9q-7" vertex="1" connectable="0">
          <mxGeometry x="-0.4812" y="-1" relative="1" as="geometry">
            <mxPoint x="21" y="-12" as="offset" />
          </mxGeometry>
        </mxCell>
        <mxCell id="AVVicG0hp_9892uMHadr-17" value="" style="endArrow=classic;html=1;rounded=0;exitX=1.008;exitY=0.688;exitDx=0;exitDy=0;exitPerimeter=0;" parent="1" edge="1" source="AVVicG0hp_9892uMHadr-11">
          <mxGeometry width="50" height="50" relative="1" as="geometry">
            <mxPoint x="270" y="512.5" as="sourcePoint" />
            <mxPoint x="360" y="546" as="targetPoint" />
          </mxGeometry>
        </mxCell>
        <mxCell id="j_ujcyk-bJkYESmtgM9s-4" value="переход в&lt;br&gt;обработчик с&amp;nbsp;&lt;br&gt;выбор&lt;div&gt;специализации&lt;/div&gt;" style="edgeLabel;html=1;align=center;verticalAlign=middle;resizable=0;points=[];" parent="AVVicG0hp_9892uMHadr-17" vertex="1" connectable="0">
          <mxGeometry x="0.3291" relative="1" as="geometry">
            <mxPoint x="-49" y="28" as="offset" />
          </mxGeometry>
        </mxCell>
        <mxCell id="iH0Iw84YJGZlvLgJqFwu-13" value="" style="endArrow=classic;html=1;rounded=0;exitX=1;exitY=0.75;exitDx=0;exitDy=0;entryX=0.008;entryY=0.636;entryDx=0;entryDy=0;entryPerimeter=0;" edge="1" parent="1" source="j_ujcyk-bJkYESmtgM9s-7" target="AVVicG0hp_9892uMHadr-18">
          <mxGeometry width="50" height="50" relative="1" as="geometry">
            <mxPoint x="530" y="550" as="sourcePoint" />
            <mxPoint x="580" y="500" as="targetPoint" />
          </mxGeometry>
        </mxCell>
        <mxCell id="AVVicG0hp_9892uMHadr-44" value="" style="endArrow=classic;html=1;rounded=0;entryX=0.023;entryY=0.348;entryDx=0;entryDy=0;exitX=1.018;exitY=0.857;exitDx=0;exitDy=0;exitPerimeter=0;entryPerimeter=0;" parent="1" source="j_ujcyk-bJkYESmtgM9s-15" target="AVVicG0hp_9892uMHadr-35" edge="1">
          <mxGeometry width="50" height="50" relative="1" as="geometry">
            <mxPoint x="430" y="1090" as="sourcePoint" />
            <mxPoint x="480" y="1040" as="targetPoint" />
          </mxGeometry>
        </mxCell>
        <mxCell id="AVVicG0hp_9892uMHadr-45" value="специальность" style="edgeLabel;html=1;align=center;verticalAlign=middle;resizable=0;points=[];" parent="AVVicG0hp_9892uMHadr-44" vertex="1" connectable="0">
          <mxGeometry x="0.3846" relative="1" as="geometry">
            <mxPoint x="-23" y="-11" as="offset" />
          </mxGeometry>
        </mxCell>
        <mxCell id="j_ujcyk-bJkYESmtgM9s-79" value="3.1" style="ellipse;whiteSpace=wrap;html=1;aspect=fixed;" parent="1" vertex="1">
          <mxGeometry x="850" y="1200" width="30" height="30" as="geometry" />
        </mxCell>
        <mxCell id="AVVicG0hp_9892uMHadr-53" value="" style="endArrow=classic;html=1;rounded=0;entryX=0.007;entryY=0.333;entryDx=0;entryDy=0;entryPerimeter=0;exitX=1.013;exitY=0.799;exitDx=0;exitDy=0;exitPerimeter=0;" parent="1" source="j_ujcyk-bJkYESmtgM9s-30" target="AVVicG0hp_9892uMHadr-54" edge="1">
          <mxGeometry width="50" height="50" relative="1" as="geometry">
            <mxPoint x="530" y="1490" as="sourcePoint" />
            <mxPoint x="390" y="1514" as="targetPoint" />
          </mxGeometry>
        </mxCell>
        <mxCell id="j_ujcyk-bJkYESmtgM9s-37" value="информация о &lt;br&gt;выбранной &lt;br&gt;ячейки &lt;br&gt;времени" style="edgeLabel;html=1;align=center;verticalAlign=middle;resizable=0;points=[];" parent="AVVicG0hp_9892uMHadr-53" vertex="1" connectable="0">
          <mxGeometry x="-0.4501" y="2" relative="1" as="geometry">
            <mxPoint x="-197" y="-18" as="offset" />
          </mxGeometry>
        </mxCell>
        <mxCell id="iH0Iw84YJGZlvLgJqFwu-26" value="информация о &lt;br&gt;выбранной &lt;br&gt;ячейки &lt;br&gt;времени" style="edgeLabel;html=1;align=center;verticalAlign=middle;resizable=0;points=[];" vertex="1" connectable="0" parent="1">
          <mxGeometry x="525.0047579242837" y="1459.9968287269435" as="geometry" />
        </mxCell>
        <mxCell id="AVVicG0hp_9892uMHadr-62" value="" style="endArrow=classic;html=1;rounded=0;exitX=0;exitY=0.5;exitDx=0;exitDy=0;entryX=1;entryY=0.5;entryDx=0;entryDy=0;" parent="1" source="AVVicG0hp_9892uMHadr-60" edge="1" target="j_ujcyk-bJkYESmtgM9s-39">
          <mxGeometry width="50" height="50" relative="1" as="geometry">
            <mxPoint x="460" y="1500" as="sourcePoint" />
            <mxPoint x="480" y="1430" as="targetPoint" />
          </mxGeometry>
        </mxCell>
        <mxCell id="j_ujcyk-bJkYESmtgM9s-43" value="" style="endArrow=classic;html=1;rounded=0;entryX=0;entryY=0.5;entryDx=0;entryDy=0;exitX=1.013;exitY=0.779;exitDx=0;exitDy=0;exitPerimeter=0;" parent="1" target="AVVicG0hp_9892uMHadr-72" edge="1" source="j_ujcyk-bJkYESmtgM9s-41">
          <mxGeometry width="50" height="50" relative="1" as="geometry">
            <mxPoint x="490" y="1970" as="sourcePoint" />
            <mxPoint x="540" y="1920" as="targetPoint" />
          </mxGeometry>
        </mxCell>
        <mxCell id="j_ujcyk-bJkYESmtgM9s-51" value="&lt;span style=&quot;font-size: 11px; text-wrap: nowrap; background-color: rgb(255, 255, 255);&quot;&gt;успешное изменение в ИС&lt;/span&gt;" style="text;whiteSpace=wrap;html=1;align=center;" parent="1" vertex="1">
          <mxGeometry x="720" y="2170" width="99" height="41" as="geometry" />
        </mxCell>
        <mxCell id="j_ujcyk-bJkYESmtgM9s-56" value="" style="endArrow=classic;html=1;rounded=0;exitX=0;exitY=0.5;exitDx=0;exitDy=0;entryX=1;entryY=0.5;entryDx=0;entryDy=0;" parent="1" source="j_ujcyk-bJkYESmtgM9s-53" target="j_ujcyk-bJkYESmtgM9s-55" edge="1">
          <mxGeometry width="50" height="50" relative="1" as="geometry">
            <mxPoint x="329" y="2130" as="sourcePoint" />
            <mxPoint x="379" y="2080" as="targetPoint" />
          </mxGeometry>
        </mxCell>
        <mxCell id="j_ujcyk-bJkYESmtgM9s-57" value="переадресация" style="edgeLabel;html=1;align=center;verticalAlign=middle;resizable=0;points=[];" parent="j_ujcyk-bJkYESmtgM9s-56" vertex="1" connectable="0">
          <mxGeometry x="-0.3905" y="-1" relative="1" as="geometry">
            <mxPoint x="-13" y="-8" as="offset" />
          </mxGeometry>
        </mxCell>
        <mxCell id="iH0Iw84YJGZlvLgJqFwu-34" style="edgeStyle=orthogonalEdgeStyle;rounded=0;orthogonalLoop=1;jettySize=auto;html=1;exitX=0;exitY=0.5;exitDx=0;exitDy=0;entryX=1;entryY=0.5;entryDx=0;entryDy=0;" edge="1" parent="1" source="j_ujcyk-bJkYESmtgM9s-45" target="j_ujcyk-bJkYESmtgM9s-53">
          <mxGeometry relative="1" as="geometry" />
        </mxCell>
        <mxCell id="iH0Iw84YJGZlvLgJqFwu-36" style="edgeStyle=orthogonalEdgeStyle;rounded=0;orthogonalLoop=1;jettySize=auto;html=1;exitX=0.5;exitY=1;exitDx=0;exitDy=0;" edge="1" parent="1" source="j_ujcyk-bJkYESmtgM9s-68" target="iH0Iw84YJGZlvLgJqFwu-35">
          <mxGeometry relative="1" as="geometry" />
        </mxCell>
      </root>
    </mxGraphModel>
  </diagram>
</mxfile>
